<svg xmlns="http://www.w3.org/2000/svg" version="1.1" xmlns:xlink="http://www.w3.org/1999/xlink" xmlns:svgjs="http://svgjs.com/svgjs" width="512" height="512" x="0" y="0" viewBox="0 0 511.999 511.999" style="enable-background:new 0 0 512 512" xml:space="preserve" class=""><circle r="255.9995" cx="255.9995" cy="255.9995" fill="#2ec017" shape="circle"></circle><g transform="matrix(0.7,0,0,0.7,76.79970703125002,76.79969329833986)"><path d="M0 249.986v6.205c0 91.496 74.438 165.933 165.934 165.933h45.039v44.848c0 24.827 20.199 45.026 45.026 45.026s45.026-20.199 45.026-45.026v-44.848h45.039c91.496 0 165.934-74.437 165.934-165.933v-6.205H0zM302.994 0c-34.185 0-61.995 27.811-61.995 61.995v157.989H271V61.995c0-17.641 14.353-31.993 31.993-31.993s31.993 14.353 31.993 31.993v37.99h30.001v-37.99C364.989 27.811 337.178 0 302.994 0zM334.988 159.934v60.051h30.001v-30.049h49.749v-30.002zM97.262 159.934v30.002h49.749v30.049h30.001v-60.051z" fill="#7f2ddf" data-original="#000000" class=""></path></g></svg>